<svg xmlns="http://www.w3.org/2000/svg" xmlns:xlink="http://www.w3.org/1999/xlink" width="500" zoomAndPan="magnify" viewBox="0 0 375 374.999991" height="500" preserveAspectRatio="xMidYMid meet" version="1.0"><defs><g/><clipPath id="f2d6ec6201"><path d="M 55.140625 55.140625 L 319.890625 55.140625 L 319.890625 319.890625 L 55.140625 319.890625 Z M 55.140625 55.140625 " clip-rule="nonzero"/></clipPath></defs><g clip-path="url(#f2d6ec6201)"><path fill="#0bb1d3" d="M 293.632812 55.140625 L 81.394531 55.140625 C 80.535156 55.140625 79.679688 55.183594 78.824219 55.269531 C 77.96875 55.351562 77.117188 55.480469 76.273438 55.648438 C 75.429688 55.816406 74.597656 56.023438 73.777344 56.273438 C 72.953125 56.523438 72.144531 56.816406 71.351562 57.144531 C 70.558594 57.472656 69.78125 57.839844 69.023438 58.246094 C 68.265625 58.652344 67.527344 59.09375 66.8125 59.570312 C 66.097656 60.050781 65.410156 60.5625 64.746094 61.105469 C 64.082031 61.652344 63.445312 62.226562 62.835938 62.835938 C 62.226562 63.445312 61.652344 64.082031 61.105469 64.746094 C 60.5625 65.410156 60.050781 66.097656 59.570312 66.8125 C 59.09375 67.527344 58.652344 68.265625 58.246094 69.023438 C 57.839844 69.78125 57.472656 70.558594 57.144531 71.351562 C 56.816406 72.144531 56.523438 72.953125 56.273438 73.777344 C 56.023438 74.597656 55.816406 75.429688 55.648438 76.273438 C 55.480469 77.117188 55.351562 77.96875 55.269531 78.824219 C 55.183594 79.679688 55.140625 80.535156 55.140625 81.394531 L 55.140625 293.632812 C 55.140625 294.492188 55.183594 295.351562 55.269531 296.207031 C 55.351562 297.0625 55.480469 297.910156 55.648438 298.753906 C 55.816406 299.597656 56.023438 300.429688 56.273438 301.253906 C 56.523438 302.074219 56.816406 302.882812 57.144531 303.675781 C 57.472656 304.472656 57.839844 305.246094 58.246094 306.003906 C 58.652344 306.761719 59.09375 307.5 59.570312 308.214844 C 60.050781 308.929688 60.5625 309.617188 61.105469 310.285156 C 61.652344 310.949219 62.226562 311.585938 62.835938 312.191406 C 63.445312 312.800781 64.082031 313.375 64.746094 313.921875 C 65.410156 314.46875 66.097656 314.980469 66.8125 315.457031 C 67.527344 315.933594 68.265625 316.375 69.023438 316.78125 C 69.78125 317.1875 70.558594 317.554688 71.351562 317.882812 C 72.144531 318.214844 72.953125 318.503906 73.777344 318.753906 C 74.597656 319.003906 75.429688 319.210938 76.273438 319.378906 C 77.117188 319.550781 77.96875 319.675781 78.824219 319.761719 C 79.679688 319.84375 80.535156 319.886719 81.394531 319.890625 L 293.632812 319.890625 C 294.492188 319.886719 295.351562 319.84375 296.207031 319.761719 C 297.0625 319.675781 297.910156 319.550781 298.753906 319.378906 C 299.597656 319.210938 300.429688 319.003906 301.253906 318.753906 C 302.074219 318.503906 302.882812 318.214844 303.675781 317.882812 C 304.472656 317.554688 305.246094 317.1875 306.003906 316.78125 C 306.761719 316.375 307.5 315.933594 308.214844 315.457031 C 308.929688 314.980469 309.617188 314.46875 310.285156 313.921875 C 310.949219 313.375 311.585938 312.800781 312.191406 312.191406 C 312.800781 311.585938 313.375 310.949219 313.921875 310.285156 C 314.46875 309.617188 314.980469 308.929688 315.457031 308.214844 C 315.933594 307.5 316.375 306.761719 316.78125 306.003906 C 317.1875 305.246094 317.554688 304.472656 317.882812 303.675781 C 318.214844 302.882812 318.503906 302.074219 318.753906 301.253906 C 319.003906 300.429688 319.210938 299.597656 319.378906 298.753906 C 319.550781 297.910156 319.675781 297.0625 319.761719 296.207031 C 319.84375 295.351562 319.886719 294.492188 319.890625 293.632812 L 319.890625 81.394531 C 319.886719 80.535156 319.84375 79.679688 319.761719 78.824219 C 319.675781 77.96875 319.550781 77.117188 319.378906 76.273438 C 319.210938 75.429688 319.003906 74.597656 318.753906 73.777344 C 318.503906 72.953125 318.214844 72.144531 317.882812 71.351562 C 317.554688 70.558594 317.1875 69.78125 316.78125 69.023438 C 316.375 68.265625 315.933594 67.527344 315.457031 66.8125 C 314.980469 66.097656 314.46875 65.410156 313.921875 64.746094 C 313.375 64.082031 312.800781 63.445312 312.191406 62.835938 C 311.585938 62.226562 310.949219 61.652344 310.285156 61.105469 C 309.617188 60.5625 308.929688 60.050781 308.214844 59.570312 C 307.5 59.09375 306.761719 58.652344 306.003906 58.246094 C 305.246094 57.839844 304.472656 57.472656 303.675781 57.144531 C 302.882812 56.816406 302.074219 56.523438 301.253906 56.273438 C 300.429688 56.023438 299.597656 55.816406 298.753906 55.648438 C 297.910156 55.480469 297.0625 55.351562 296.207031 55.269531 C 295.351562 55.183594 294.492188 55.140625 293.632812 55.140625 Z M 244.816406 260.414062 C 244.578125 261.296875 244.277344 262.160156 243.910156 263 C 243.546875 263.839844 243.121094 264.652344 242.640625 265.429688 C 242.15625 266.207031 241.617188 266.945312 241.023438 267.644531 C 240.429688 268.339844 239.789062 268.992188 239.097656 269.597656 C 238.410156 270.199219 237.679688 270.75 236.910156 271.246094 C 236.140625 271.742188 235.335938 272.179688 234.503906 272.554688 C 233.667969 272.933594 232.808594 273.25 231.929688 273.5 C 231.046875 273.75 230.152344 273.933594 229.242188 274.054688 C 228.335938 274.171875 227.421875 274.222656 226.507812 274.207031 C 225.589844 274.191406 224.679688 274.109375 223.777344 273.960938 C 222.871094 273.808594 221.984375 273.59375 221.113281 273.3125 C 220.242188 273.03125 219.394531 272.6875 218.570312 272.28125 C 217.75 271.875 216.964844 271.410156 216.210938 270.890625 C 215.457031 270.367188 214.746094 269.792969 214.078125 269.164062 C 213.410156 268.539062 212.792969 267.867188 212.222656 267.148438 C 211.65625 266.429688 211.144531 265.671875 210.6875 264.878906 L 187.515625 224.761719 L 164.332031 264.890625 C 164.015625 265.40625 163.675781 265.90625 163.3125 266.390625 C 162.945312 266.878906 162.5625 267.34375 162.152344 267.792969 C 161.746094 268.238281 161.316406 268.667969 160.867188 269.074219 C 160.417969 269.480469 159.953125 269.867188 159.464844 270.230469 C 158.980469 270.589844 158.480469 270.929688 157.960938 271.246094 C 157.445312 271.5625 156.914062 271.851562 156.367188 272.117188 C 155.824219 272.378906 155.265625 272.617188 154.699219 272.832031 C 154.128906 273.042969 153.554688 273.226562 152.96875 273.382812 C 152.382812 273.539062 151.792969 273.667969 151.195312 273.769531 C 150.597656 273.871094 149.996094 273.941406 149.390625 273.988281 C 148.785156 274.03125 148.183594 274.046875 147.574219 274.03125 C 146.96875 274.015625 146.367188 273.976562 145.765625 273.902344 C 145.164062 273.832031 144.566406 273.734375 143.972656 273.605469 C 143.382812 273.476562 142.796875 273.320312 142.21875 273.136719 C 141.640625 272.953125 141.074219 272.742188 140.515625 272.507812 C 139.957031 272.269531 139.414062 272.003906 138.878906 271.714844 C 138.136719 271.285156 137.425781 270.804688 136.746094 270.273438 C 136.066406 269.742188 135.429688 269.167969 134.828125 268.550781 C 134.230469 267.929688 133.675781 267.273438 133.167969 266.578125 C 132.660156 265.882812 132.203125 265.15625 131.796875 264.398438 C 131.390625 263.640625 131.035156 262.855469 130.738281 262.050781 C 130.4375 261.242188 130.199219 260.417969 130.011719 259.574219 C 129.828125 258.734375 129.703125 257.886719 129.636719 257.027344 C 129.570312 256.167969 129.5625 255.308594 129.613281 254.449219 C 129.613281 254.265625 129.613281 254.09375 129.613281 253.910156 L 129.613281 168.925781 C 129.613281 168.558594 129.644531 168.199219 129.714844 167.839844 C 129.785156 167.480469 129.886719 167.132812 130.023438 166.796875 C 130.164062 166.457031 130.332031 166.136719 130.53125 165.832031 C 130.734375 165.527344 130.960938 165.246094 131.21875 164.988281 C 131.476562 164.726562 131.753906 164.496094 132.058594 164.292969 C 132.359375 164.085938 132.679688 163.914062 133.015625 163.773438 C 133.351562 163.632812 133.699219 163.527344 134.054688 163.453125 C 134.414062 163.378906 134.773438 163.34375 135.140625 163.339844 L 161.304688 163.339844 C 161.667969 163.34375 162.027344 163.378906 162.382812 163.449219 C 162.742188 163.523438 163.085938 163.628906 163.421875 163.765625 C 163.757812 163.90625 164.078125 164.078125 164.378906 164.28125 C 164.683594 164.484375 164.960938 164.714844 165.21875 164.96875 C 165.476562 165.226562 165.707031 165.507812 165.90625 165.8125 C 166.109375 166.113281 166.28125 166.433594 166.417969 166.769531 C 166.558594 167.105469 166.664062 167.453125 166.734375 167.808594 C 166.804688 168.164062 166.839844 168.527344 166.839844 168.890625 L 166.839844 186.027344 L 194.546875 138.015625 L 135.128906 138.015625 C 134.765625 138.019531 134.402344 137.984375 134.046875 137.914062 C 133.6875 137.84375 133.339844 137.738281 133.003906 137.597656 C 132.667969 137.460938 132.347656 137.289062 132.042969 137.085938 C 131.738281 136.882812 131.460938 136.652344 131.203125 136.394531 C 130.945312 136.136719 130.714844 135.859375 130.511719 135.554688 C 130.308594 135.25 130.136719 134.929688 130 134.59375 C 129.859375 134.257812 129.753906 133.910156 129.683594 133.550781 C 129.613281 133.195312 129.578125 132.832031 129.578125 132.46875 L 129.578125 106.363281 C 129.578125 106 129.617188 105.636719 129.6875 105.28125 C 129.757812 104.921875 129.863281 104.574219 130.003906 104.238281 C 130.140625 103.902344 130.3125 103.582031 130.515625 103.28125 C 130.71875 102.976562 130.949219 102.695312 131.203125 102.4375 C 131.460938 102.183594 131.742188 101.953125 132.046875 101.75 C 132.347656 101.546875 132.667969 101.375 133.003906 101.238281 C 133.339844 101.097656 133.6875 100.992188 134.046875 100.921875 C 134.402344 100.851562 134.765625 100.8125 135.128906 100.8125 L 226.824219 100.8125 C 227.09375 100.8125 227.363281 100.835938 227.628906 100.882812 C 228.027344 100.898438 228.425781 100.929688 228.820312 100.96875 C 229.21875 101.011719 229.613281 101.066406 230.003906 101.132812 C 230.398438 101.199219 230.789062 101.277344 231.175781 101.371094 C 231.566406 101.464844 231.949219 101.566406 232.332031 101.683594 C 232.710938 101.800781 233.089844 101.929688 233.460938 102.070312 C 233.832031 102.210938 234.203125 102.363281 234.566406 102.53125 C 234.925781 102.695312 235.285156 102.871094 235.636719 103.058594 C 235.988281 103.246094 236.332031 103.445312 236.671875 103.65625 C 237.011719 103.863281 237.34375 104.085938 237.667969 104.316406 C 237.992188 104.546875 238.308594 104.789062 238.617188 105.039062 C 238.925781 105.292969 239.226562 105.554688 239.519531 105.824219 C 239.8125 106.09375 240.097656 106.375 240.371094 106.664062 C 240.644531 106.953125 240.910156 107.25 241.164062 107.558594 C 241.421875 107.863281 241.664062 108.179688 241.898438 108.5 C 242.136719 108.820312 242.359375 109.152344 242.574219 109.488281 C 242.785156 109.824219 242.988281 110.167969 243.179688 110.515625 C 243.375 110.867188 243.554688 111.222656 243.722656 111.582031 C 243.890625 111.945312 244.046875 112.308594 244.195312 112.679688 C 244.339844 113.050781 244.472656 113.425781 244.59375 113.808594 C 244.714844 114.1875 244.824219 114.570312 244.917969 114.957031 C 245.015625 115.34375 245.101562 115.734375 245.171875 116.125 C 245.242188 116.515625 245.300781 116.910156 245.347656 117.308594 C 245.394531 117.703125 245.429688 118.101562 245.449219 118.5 C 245.46875 118.894531 245.476562 119.292969 245.472656 119.691406 C 245.464844 120.089844 245.449219 120.488281 245.417969 120.886719 C 245.386719 121.285156 245.34375 121.679688 245.289062 122.074219 C 245.230469 122.46875 245.164062 122.863281 245.082031 123.253906 C 245 123.640625 244.90625 124.03125 244.800781 124.414062 C 244.695312 124.796875 244.574219 125.179688 244.445312 125.554688 C 244.3125 125.929688 244.171875 126.304688 244.015625 126.671875 C 243.863281 127.039062 243.695312 127.398438 243.519531 127.757812 C 243.339844 128.113281 243.152344 128.464844 242.949219 128.808594 L 208.992188 187.515625 L 242.949219 246.21875 C 243.570312 247.28125 244.082031 248.390625 244.480469 249.554688 C 244.878906 250.71875 245.15625 251.910156 245.316406 253.128906 C 245.476562 254.347656 245.515625 255.570312 245.429688 256.796875 C 245.347656 258.023438 245.140625 259.226562 244.816406 260.414062 Z M 244.816406 260.414062 " fill-opacity="1" fill-rule="nonzero"/></g><g fill="#ffffff" fill-opacity="1"><g transform="translate(273.294878, 271.120148)"><g><path d="M 0 -16.5625 L 0 -2.546875 L -23.59375 -2.546875 L -23.59375 -16.5625 L -18.46875 -16.5625 L -18.46875 -8.921875 L -14.765625 -8.921875 L -14.765625 -15.984375 L -9.65625 -15.984375 L -9.65625 -8.921875 L -5.203125 -8.921875 L -5.203125 -16.5625 Z M 0 -16.5625 "/></g></g></g><g fill="#ffffff" fill-opacity="1"><g transform="translate(273.294878, 252.98555)"><g><path d="M 0 -22.765625 L 0 -16.359375 L -9.609375 -16.359375 L -9.609375 -8.953125 L 0 -8.953125 L 0 -2.546875 L -23.59375 -2.546875 L -23.59375 -8.953125 L -14.84375 -8.953125 L -14.84375 -16.359375 L -23.59375 -16.359375 L -23.59375 -22.765625 Z M 0 -22.765625 "/></g></g></g><g fill="#ffffff" fill-opacity="1"><g transform="translate(273.294878, 227.671316)"><g><path d="M 0 -16.5625 L 0 -2.546875 L -23.59375 -2.546875 L -23.59375 -16.5625 L -18.46875 -16.5625 L -18.46875 -8.921875 L -14.765625 -8.921875 L -14.765625 -15.984375 L -9.65625 -15.984375 L -9.65625 -8.921875 L -5.203125 -8.921875 L -5.203125 -16.5625 Z M 0 -16.5625 "/></g></g></g><g fill="#ffffff" fill-opacity="1"><g transform="translate(273.294878, 209.536717)"><g><path d="M 0 -17.03125 L -4.421875 -15.859375 L -4.421875 -8.203125 L 0 -7 L 0 0 L -23.6875 -7.703125 L -23.6875 -16.203125 L 0 -24 Z M -9.65625 -14.53125 L -13.515625 -13.515625 C -14.378906 -13.285156 -15.492188 -13 -16.859375 -12.65625 C -18.222656 -12.320312 -19.203125 -12.097656 -19.796875 -11.984375 C -19.242188 -11.890625 -18.335938 -11.695312 -17.078125 -11.40625 C -15.828125 -11.125 -13.351562 -10.492188 -9.65625 -9.515625 Z M -9.65625 -14.53125 "/></g></g></g><g fill="#ffffff" fill-opacity="1"><g transform="translate(273.294878, 185.545471)"><g><path d="M -8.578125 -8.921875 L 0 -8.921875 L 0 -2.546875 L -23.59375 -2.546875 L -23.59375 -10.28125 C -23.59375 -16.6875 -21.269531 -19.890625 -16.625 -19.890625 C -13.882812 -19.890625 -11.769531 -18.554688 -10.28125 -15.890625 L 0 -22.765625 L 0 -15.546875 L -8.578125 -10.53125 Z M -13.375 -8.921875 L -13.375 -10.125 C -13.375 -12.34375 -14.359375 -13.453125 -16.328125 -13.453125 C -17.953125 -13.453125 -18.765625 -12.363281 -18.765625 -10.1875 L -18.765625 -8.921875 Z M -13.375 -8.921875 "/></g></g></g><g fill="#ffffff" fill-opacity="1"><g transform="translate(273.294878, 163.183768)"><g><path d="M -7.171875 -17.96875 C -5.703125 -17.96875 -4.398438 -17.597656 -3.265625 -16.859375 C -2.128906 -16.117188 -1.242188 -15.046875 -0.609375 -13.640625 C 0.015625 -12.242188 0.328125 -10.609375 0.328125 -8.734375 C 0.328125 -7.160156 0.21875 -5.835938 0 -4.765625 C -0.226562 -3.703125 -0.613281 -2.597656 -1.15625 -1.453125 L -6.84375 -1.453125 C -6.21875 -2.671875 -5.726562 -3.9375 -5.375 -5.25 C -5.03125 -6.5625 -4.859375 -7.765625 -4.859375 -8.859375 C -4.859375 -9.804688 -5.019531 -10.5 -5.34375 -10.9375 C -5.675781 -11.382812 -6.097656 -11.609375 -6.609375 -11.609375 C -6.929688 -11.609375 -7.210938 -11.515625 -7.453125 -11.328125 C -7.703125 -11.148438 -7.945312 -10.863281 -8.1875 -10.46875 C -8.4375 -10.082031 -8.945312 -9.039062 -9.71875 -7.34375 C -10.414062 -5.800781 -11.09375 -4.644531 -11.75 -3.875 C -12.40625 -3.113281 -13.15625 -2.546875 -14 -2.171875 C -14.851562 -1.796875 -15.863281 -1.609375 -17.03125 -1.609375 C -19.195312 -1.609375 -20.890625 -2.398438 -22.109375 -3.984375 C -23.328125 -5.566406 -23.9375 -7.738281 -23.9375 -10.5 C -23.9375 -12.945312 -23.367188 -15.4375 -22.234375 -17.96875 L -17.3125 -16.015625 C -18.320312 -13.816406 -18.828125 -11.914062 -18.828125 -10.3125 C -18.828125 -9.476562 -18.679688 -8.875 -18.390625 -8.5 C -18.097656 -8.125 -17.738281 -7.9375 -17.3125 -7.9375 C -16.851562 -7.9375 -16.4375 -8.175781 -16.0625 -8.65625 C -15.695312 -9.132812 -15.035156 -10.429688 -14.078125 -12.546875 C -13.160156 -14.585938 -12.175781 -16 -11.125 -16.78125 C -10.070312 -17.570312 -8.753906 -17.96875 -7.171875 -17.96875 Z M -7.171875 -17.96875 "/></g></g></g><g fill="#ffffff" fill-opacity="1"><g transform="translate(273.294878, 144.113399)"><g><path d="M 0 -17.03125 L -4.421875 -15.859375 L -4.421875 -8.203125 L 0 -7 L 0 0 L -23.6875 -7.703125 L -23.6875 -16.203125 L 0 -24 Z M -9.65625 -14.53125 L -13.515625 -13.515625 C -14.378906 -13.285156 -15.492188 -13 -16.859375 -12.65625 C -18.222656 -12.320312 -19.203125 -12.097656 -19.796875 -11.984375 C -19.242188 -11.890625 -18.335938 -11.695312 -17.078125 -11.40625 C -15.828125 -11.125 -13.351562 -10.492188 -9.65625 -9.515625 Z M -9.65625 -14.53125 "/></g></g></g><g fill="#ffffff" fill-opacity="1"><g transform="translate(273.294878, 120.122152)"><g><path d="M 0 -2.546875 L -23.59375 -2.546875 L -23.59375 -8.921875 L -5.140625 -8.921875 L -5.140625 -18.015625 L 0 -18.015625 Z M 0 -2.546875 "/></g></g></g></svg>